<svg version="1.2" xmlns="http://www.w3.org/2000/svg" viewBox="0 0 160 50" width="160" height="50"><style></style><path  d="m20.2 22q0.2-0.1 0.3-0.1 0.1 0 0.2 0.1 0.1 0.1 0.1 0.3v7q0 1.3-0.9 2.2-0.9 0.9-2.2 0.9h-4.4q-0.2 0-0.3-0.1-0.1-0.1-0.1-0.2 0-0.2 0.1-0.3 0.1-0.1 0.3-0.1h4.4q1 0 1.7-0.7 0.7-0.7 0.7-1.7v-2.5q-0.4 0.6-1 0.9-0.7 0.3-1.4 0.3h-3.7q-1.3 0-2.3-0.9-0.9-0.9-0.9-2.2v-2.6q0-0.2 0.1-0.3 0.1-0.1 0.3-0.1 0.1 0 0.2 0.1 0.1 0.1 0.1 0.3v2.6q0 1 0.7 1.7 0.8 0.7 1.8 0.7h3.7q1 0 1.7-0.7 0.7-0.7 0.7-1.7v-2.6q0-0.2 0.1-0.3zm5.4-0.1h3.9q1.3 0 2.1 0.9 0.9 0.9 0.9 2.2 0 1.2-0.9 2.1-0.8 0.9-2.1 0.9h-3.9q-1.3 0-2.2-0.9-0.9-0.9-0.9-2.1 0-1.3 0.9-2.2 0.9-0.9 2.2-0.9zm0 5.4h3.9q1 0 1.6-0.7 0.7-0.7 0.7-1.6 0-1-0.7-1.7-0.6-0.7-1.6-0.7h-3.9q-1 0-1.7 0.7-0.7 0.7-0.7 1.7 0 0.9 0.7 1.6 0.7 0.7 1.7 0.7zm17.9-5.3q0.1-0.1 0.2-0.1 0.2 0 0.3 0.1 0.1 0.1 0.1 0.3v2.6q0 1.3-1 2.2-0.9 0.9-2.2 0.9h-3.7q-1.3 0-2.2-0.9-1-0.9-1-2.2v-2.6q0-0.2 0.2-0.3 0.1-0.1 0.2-0.1 0.1 0 0.2 0.1 0.1 0.1 0.1 0.3v2.6q0 1 0.8 1.7 0.7 0.7 1.7 0.7h3.7q0.7 0 1.2-0.3 0.6-0.4 0.9-0.9 0.4-0.6 0.4-1.2v-2.6q0-0.2 0.1-0.3zm5.4-0.1h4.5q0.2 0 0.3 0.1 0.1 0.1 0.1 0.3 0 0.1-0.1 0.2-0.1 0.1-0.3 0.1h-4.5q-1.1 0-1.8 0.7-0.7 0.7-0.7 1.7v2.7q0 0.1-0.1 0.2-0.1 0.1-0.2 0.1-0.2 0-0.3-0.1-0.1-0.1-0.1-0.2v-2.7q0-1.2 0.9-2.2 1-0.9 2.3-0.9zm16.1 5.4q0.2 0 0.2 0.1 0.1 0.1 0.1 0.3 0 0.1-0.1 0.2 0 0.1-0.2 0.1-0.8 0-1.6-0.4-0.7-0.4-1.1-1.2-0.4-0.7-0.4-1.5v-7.1q0-0.1 0.1-0.2 0.1-0.1 0.2-0.1 0.2 0 0.3 0.1 0.1 0.1 0.1 0.2v7.1q0 1 0.7 1.7 0.7 0.7 1.7 0.7zm4-5.4h3.9q1.3 0 2.2 0.9 0.9 0.9 0.9 2.2 0 1.2-0.9 2.1-0.9 0.9-2.2 0.9h-3.9q-1.3 0-2.2-0.9-0.9-0.9-0.9-2.1 0-1.3 0.9-2.2 0.9-0.9 2.2-0.9zm0 5.4h3.9q1 0 1.7-0.7 0.7-0.7 0.7-1.6 0-1-0.7-1.7-0.7-0.7-1.7-0.7h-3.9q-1 0-1.7 0.7-0.7 0.7-0.7 1.7 0 0.9 0.7 1.6 0.7 0.7 1.7 0.7zm11.4-5.4h6.6q0.1 0 0.2 0.1 0.1 0.1 0.1 0.3v7q0 1.3-0.9 2.2-0.9 0.9-2.2 0.9h-4.4q-0.2 0-0.3-0.1-0.1-0.1-0.1-0.2 0-0.2 0.1-0.3 0.1-0.1 0.3-0.1h4.4q1 0 1.7-0.7 0.7-0.7 0.7-1.7v-6.7h-6.2q-1 0-1.7 0.7-0.7 0.7-0.7 1.7 0 0.9 0.7 1.6 0.7 0.7 1.7 0.7h4.5q0.1 0 0.2 0.1 0.2 0.1 0.2 0.3 0 0.1-0.2 0.2-0.1 0.1-0.2 0.1h-4.5q-1.3 0-2.2-0.9-0.9-0.9-0.9-2.1 0-1.3 0.9-2.2 0.9-0.9 2.2-0.9zm11.7 0h3.9q1.3 0 2.1 0.9 0.9 0.9 0.9 2.2 0 1.2-0.9 2.1-0.8 0.9-2.1 0.9h-3.9q-1.3 0-2.2-0.9-0.9-0.9-0.9-2.1 0-1.3 0.9-2.2 0.9-0.9 2.2-0.9zm0 5.4h3.9q1 0 1.6-0.7 0.7-0.7 0.7-1.6 0-1-0.7-1.7-0.6-0.7-1.6-0.7h-3.9q-1 0-1.7 0.7-0.7 0.7-0.7 1.7 0 0.9 0.7 1.6 0.7 0.7 1.7 0.7zm16.2-5.4h6.2q0.8 0 1.6 0.4 0.7 0.5 1.1 1.2 0.4 0.7 0.4 1.5v2.7q0 0.1-0.1 0.2-0.1 0.1-0.2 0.1-0.2 0-0.3-0.1-0.1-0.1-0.1-0.2v-2.7q0-1-0.7-1.7-0.7-0.7-1.7-0.7h-6.2v5.1q0 0.1-0.1 0.2-0.1 0.1-0.2 0.1-0.2 0-0.3-0.1-0.1-0.1-0.1-0.2v-9.9q0-0.1 0.1-0.2 0.1-0.1 0.3-0.1 0.1 0 0.1 0 0.1 0.1 0.2 0.2 0 0.1 0 0.1zm13.9 5.4h6.6q0.1 0 0.3 0.1 0.1 0.1 0.1 0.3 0 0.1-0.1 0.2-0.2 0.1-0.3 0.1h-6.6q-1.3 0-2.2-0.8-0.9-1-0.9-2.2 0-1.3 0.9-2.2 0.9-0.9 2.2-0.9h4.7q0.9 0 1.6 0.7 0.7 0.7 0.7 1.6 0 0.9-0.7 1.6-0.7 0.6-1.6 0.6h-5.3q-0.2 0-0.3-0.1-0.1-0.1-0.1-0.2 0-0.1 0.1-0.2 0-0.1 0.1-0.1 0.1-0.1 0.2-0.1h5.3q0.7 0 1.1-0.4 0.5-0.5 0.5-1.1 0-0.4-0.3-0.8-0.2-0.3-0.5-0.6-0.4-0.2-0.8-0.2h-4.7q-1 0-1.7 0.7-0.7 0.7-0.7 1.7 0 1 0.7 1.7 0.7 0.6 1.7 0.6zm11.7-5.4h4.5q0.2 0 0.3 0.2 0.1 0 0.1 0.2 0 0.1-0.1 0.2-0.1 0.1-0.3 0.1h-4.5q-1 0-1.8 0.8-0.7 0.7-0.7 1.7v2.6q0 0.1-0.1 0.2-0.1 0.1-0.2 0.1-0.2 0-0.3-0.1-0.1-0.1-0.1-0.2v-2.6q0-1.3 1-2.2 0.9-1 2.2-1zm8.3 5.4h6.6q0.2 0 0.3 0.1 0.1 0.1 0.1 0.3 0 0.1-0.1 0.2-0.1 0.1-0.3 0.1h-6.6q-1.2 0-2.1-0.8-0.9-1-0.9-2.2 0-1.3 0.9-2.2 0.9-0.9 2.1-0.9h4.7q1 0 1.6 0.7 0.7 0.7 0.7 1.6 0 0.9-0.7 1.6-0.6 0.6-1.6 0.6h-5.3q-0.1 0-0.2-0.1-0.1-0.1-0.1-0.2 0-0.1 0-0.2 0-0.1 0.1-0.1 0.1-0.1 0.2-0.1h5.3q0.7 0 1.1-0.4 0.5-0.5 0.5-1.1 0-0.4-0.2-0.8-0.2-0.3-0.6-0.6-0.3-0.2-0.8-0.2h-4.7q-1 0-1.7 0.7-0.6 0.7-0.6 1.7 0 1 0.6 1.7 0.7 0.6 1.7 0.6z"/></svg>