<svg version="1.2" xmlns="http://www.w3.org/2000/svg" viewBox="0 0 160 50" width="160" height="50"><style>.a{fill:#ebe028}.b{fill:#fff}</style><path fill-rule="evenodd" class="a" d="m19 27.3v-2.3l120.3 0.1v2.3z"/><path class="b" d="m24.1 17.4l-0.5 1.3 1.3-1 14.2-9.5h9.8l-17.9 11.6 13.3 14.2h-9.6l-9.8-11-2.1 1.3-1.8 9.7h-7.6l4.7-25.8h7.6zm27.5 1.3h7.3l-2.8 15.3h-7.3zm0.5-5.4q0-1.1 1.1-1.8 1.2-0.8 3.1-0.8 1.5 0 2.7 0.5 1.1 0.6 1.1 1.8 0 1.1-1.1 1.8-1.2 0.8-3 0.8-1.5 0-2.7-0.5-1.2-0.6-1.2-1.8zm30.2 4.7q3.2 0 5.1 1.3 1.9 1.3 1.7 3.3l-2.1 11.4h-7.3l1.8-9.6q0.1-1.1-0.6-1.6-0.7-0.6-2.4-0.6-2.5 0-4.3 1.5-1.7 1.6-2.2 4.1l-1.1 6.2h-7.3l2.8-15.3h6.6l0.1 2.3q1.5-1.4 3.9-2.2 2.4-0.8 5.3-0.8zm33.8 0.7h6.7l-3 16.1q-0.4 2.2-2.3 3.8-2 1.5-5 2.3-3 0.8-6.5 0.8-3.1 0-5.3-0.4-2.2-0.5-3.5-1-1.3-0.6-3-1.6l4.9-3.3q1.5 0.9 3.2 1.5 1.7 0.6 4.4 0.6 2.3 0 4.1-1 1.7-0.9 2-2.5l0.4-2q-1.2 1.1-3.3 1.8-1.9 0.6-4.6 0.6-3.2 0-5.7-0.9-2.5-0.9-4-2.7-1.4-1.8-1.4-4.4 0-1.8 1.5-3.8 1.5-2 4.5-3.3 3-1.3 7.2-1.3 2.9 0 4.9 0.5 2.1 0.5 3.1 1.4zm-2.3 9.4l0.7-3.7q-0.6-1.2-2.1-1.8-1.6-0.7-3.7-0.7-2.4 0-4 0.7-1.6 0.7-2.4 1.8-0.7 1-0.7 2 0 1.9 1.6 3 1.6 1 4.6 1 1.7 0 3.3-0.6 1.6-0.6 2.7-1.7zm21.8 6.2q-2.3 0-5.1-0.6-2.7-0.6-4.6-2.3l3.4-2.6q1.8 1.4 3.3 1.8 1.4 0.3 2.8 0.3 1.4 0 2-0.3 0.6-0.4 0.6-1 0-0.6-0.9-0.9-0.8-0.3-2.6-0.8l-1-0.2q-2.6-0.7-3.8-1.8-1.2-1.2-1.2-2.6 0-1.1 0.8-2.3 0.8-1.2 2.7-2.1 2.1-0.9 5.4-0.9 2.7 0 5 0.5 2.3 0.4 4.2 1.5l-3.2 2.8q-2.3-1.5-4.8-1.5-1.4 0-2.1 0.4-0.6 0.3-0.6 0.9 0 0.6 0.9 1 0.8 0.3 2.6 0.8 0.8 0.1 1.4 0.3 4.6 1.3 4.6 3.9 0 1.5-1.2 2.8-1.1 1.3-3.3 2.1-2.2 0.8-5.3 0.8z"/></svg>